<?xml version="1.0" encoding="UTF-8" standalone="no"?><!DOCTYPE svg PUBLIC "-//W3C//DTD SVG 1.1//EN" "http://www.w3.org/Graphics/SVG/1.1/DTD/svg11.dtd"><svg width="100%" height="100%" viewBox="0 0 5000 3000" version="1.1" xmlns="http://www.w3.org/2000/svg" xmlns:xlink="http://www.w3.org/1999/xlink" xml:space="preserve" xmlns:serif="http://www.serif.com/" style="fill-rule:evenodd;clip-rule:evenodd;stroke-linejoin:round;stroke-miterlimit:2;"><g id="ISOTIPO"><path d="M1677.05,1488.76l2.889,-10.62l-70.758,-19.247l13.661,-50.224l-18.359,-4.994l-16.55,60.845l89.117,24.24Z" style="fill:#fff;fill-rule:nonzero;"/><path d="M1829.28,1530.16l-44.785,-74.741c-1.601,-2.684 -3.842,-4.731 -7.893,-5.833c-4.052,-1.102 -7.165,-0.511 -9.905,0.991l-76.329,41.798l20.982,5.707l60.453,-33.71l17.248,29.145l-32.268,-8.777l-11.024,6.25l49.776,13.539l11.606,19.609l22.139,6.022Z" style="fill:#fff;fill-rule:nonzero;"/><path d="M1926.82,1556.69c20.545,5.588 35.823,1.93 38.852,-9.205c1.937,-7.119 -3.683,-13.858 -12.746,-18.209c8.191,0.702 16.032,-1.3 18.129,-9.007c2.823,-10.378 -9.31,-19.426 -29.857,-25.014l-76.976,-20.938l-16.55,60.845l79.148,21.528Zm6.471,-26.648c10.276,2.795 15.146,7.178 13.779,12.204c-1.618,5.947 -11.74,5.443 -24.911,1.86l-53.262,-14.487l10.795,-39.688l51.67,14.054c13.606,3.701 22.161,7.108 20.407,13.558c-1.436,5.277 -6.927,6.032 -17.347,3.198l-45.447,-12.362l-2.434,8.947l46.75,12.716Z" style="fill:#fff;fill-rule:nonzero;"/><path d="M2062.83,1593.69c21.991,5.981 34.758,1.281 37.536,-8.933c3.211,-11.805 -6.639,-20.68 -27.908,-26.465l-48.196,-13.109c-8.105,-2.205 -12.419,-6.347 -11.166,-10.954c1.253,-4.607 6.949,-6.117 15.343,-3.834l75.536,20.546l2.889,-10.62l-75.536,-20.546c-20.977,-5.706 -34.376,-1.537 -37.041,8.258c-2.733,10.049 7.576,20.665 27.397,26.056l48.34,13.149c9.842,2.677 14.614,6.854 13.201,12.047c-1.299,4.774 -7.665,6.461 -17.507,3.784l-78.858,-21.449l-2.889,10.62l78.859,21.45Z" style="fill:#fff;fill-rule:nonzero;"/><path d="M3473.26,1853.43c68.479,18.413 140.761,27.62 220.653,27.62c140.761,-0 239.677,-28.643 239.677,-77.744l-0,-681.278l-460.33,-0l0,544.204l-1954.13,-520.679c-72.283,-19.436 -133.152,-26.595 -205.435,-26.595c-152.175,0 -247.284,29.664 -247.284,77.742l0,675.142l460.33,-0l-0,-544.205l1946.52,525.793Z" style="fill:url(#_Linear1);fill-rule:nonzero;"/></g><defs><linearGradient id="_Linear1" x1="0" y1="0" x2="1" y2="0" gradientUnits="userSpaceOnUse" gradientTransform="matrix(-2971,-786,786,-2971,3852,1805)"><stop offset="0" style="stop-color:#fffaf3;stop-opacity:1"/><stop offset="1" style="stop-color:#000;stop-opacity:1"/></linearGradient></defs></svg>