<?xml version="1.0" encoding="UTF-8" standalone="no"?><!DOCTYPE svg PUBLIC "-//W3C//DTD SVG 1.1//EN" "http://www.w3.org/Graphics/SVG/1.1/DTD/svg11.dtd"><svg width="100%" height="100%" viewBox="0 0 5000 3000" version="1.1" xmlns="http://www.w3.org/2000/svg" xmlns:xlink="http://www.w3.org/1999/xlink" xml:space="preserve" xmlns:serif="http://www.serif.com/" style="fill-rule:evenodd;clip-rule:evenodd;stroke-linejoin:round;stroke-miterlimit:2;"><path d="M3553.97,1785.8l0,-21.795l-145.208,-0l-0,-103.069l-37.676,-0l0,124.864l182.884,-0Z" style="fill:#fff;fill-rule:nonzero;"/><path d="M3866.38,1785.8l-124.422,-119.539c-4.454,-4.295 -9.8,-7.043 -18.114,-7.043c-8.315,-0 -13.957,2.748 -18.411,7.043l-124.125,119.539l43.058,-0l97.993,-95.833l48.106,46.725l-66.22,-0l-17.817,17.672l102.151,-0l32.367,31.436l45.434,-0Z" style="fill:#fff;fill-rule:nonzero;"/><path d="M4066.54,1785.8c42.162,-0 69.455,-14.93 69.455,-37.781c0,-14.611 -14.24,-24.567 -33.819,-28.17c16.016,-2.917 29.959,-10.817 29.959,-26.632c-0,-21.298 -27.886,-32.281 -70.051,-32.281l-157.969,-0l-0,124.864l162.425,-0Zm-1.486,-54.283c21.089,-0 32.672,5.844 32.672,16.158c-0,12.204 -19.603,16.502 -46.632,16.502l-109.304,-0l0,-81.447l106.037,0c27.92,0 46.039,2.063 46.039,15.3c-0,10.83 -10.099,15.127 -31.485,15.127l-93.265,0l0,18.36l95.938,-0Z" style="fill:#fff;fill-rule:nonzero;"/><path d="M4345.67,1785.8c45.13,-0 67.081,-15.617 67.081,-36.578c0,-24.225 -23.434,-36.065 -67.081,-36.065l-98.907,0c-16.633,0 -27.029,-5.672 -27.029,-15.127c0,-9.455 10.099,-15.3 27.326,-15.3l155.012,0l0,-21.794l-155.012,-0c-43.049,-0 -66.486,14.93 -66.486,35.031c-0,20.622 25.217,35.55 65.892,35.55l99.204,-0c20.197,-0 31.484,5.5 31.484,16.158c0,9.798 -11.287,16.33 -31.484,16.33l-161.833,-0l0,21.795l161.833,-0Z" style="fill:#fff;fill-rule:nonzero;"/><path d="M2153.4,1534.31l0,-55.662l-337.73,-0.55l0,-207.565l337.086,0.548l-0,-55.661l-418.215,-0.681l-0,318.889l418.859,0.682Zm-18.046,-138.663l-0,-46.887l-259.743,-0.423l-0,46.887l259.743,0.423Z" style="fill:#fff;fill-rule:nonzero;"/><path d="M2575.63,1534.99c91.513,0.149 150.752,-37.885 150.752,-96.244c0,-37.315 -30.908,-62.79 -73.405,-72.061c34.763,-7.393 65.026,-27.521 65.026,-67.91c0,-54.392 -60.526,-82.541 -152.044,-82.69l-342.869,-0.558l-0,318.889l352.54,0.574Zm-3.224,-138.639c45.773,0.075 70.913,15.042 70.913,41.382c0,31.169 -42.547,42.075 -101.213,41.979l-237.242,-0.386l-0,-208.004l230.151,0.374c60.6,0.099 99.925,5.431 99.925,39.236c0,27.658 -21.919,38.598 -68.336,38.523l-202.43,-0.33l0,46.887l208.232,0.339Z" style="fill:#fff;fill-rule:nonzero;"/><path d="M3216.95,1395.27c0,64.052 -41.906,90.307 -170.84,90.097c-128.934,-0.21 -170.838,-26.601 -170.838,-90.653l0,-178.117l-84.352,-0.137l-0,178.117c-0,98.702 72.117,145.276 252.611,145.57c181.79,0.296 253.26,-46.044 253.26,-144.747l-0,-178.117l-79.841,-0.13l0,178.117Z" style="fill:#fff;fill-rule:nonzero;"/><path d="M3767.93,1536.93l0,-55.662l-315.172,-0.513l0,-263.227l-81.774,-0.133l0,318.889l396.946,0.646Z" style="fill:#fff;fill-rule:nonzero;"/><path d="M4413.79,1537.99l-270.055,-305.729c-9.668,-10.983 -21.269,-18.021 -39.316,-18.051c-18.047,-0.029 -30.293,6.97 -39.96,17.922l-269.411,304.851l93.456,0.152l212.692,-244.401l104.413,119.5l-143.729,-0.234l-38.671,45.07l221.716,0.361l70.253,80.398l98.612,0.161Z" style="fill:#fff;fill-rule:nonzero;"/><path d="M1467.05,1534.07c29.357,7.894 60.346,11.841 94.596,11.841c60.345,-0 102.751,-12.279 102.751,-33.329l-0,-292.069l-197.347,-0l0,233.304l-837.751,-223.219c-30.988,-8.332 -57.083,-11.401 -88.071,-11.401c-65.239,-0 -106.012,12.717 -106.012,33.328l-0,289.438l197.346,0l0,-233.304l834.488,225.411Z" style="fill:#fff;fill-rule:nonzero;"/></svg>